<svg width="180" height="113" viewBox="0 0 231 145" fill="none" xmlns="http://www.w3.org/2000/svg">
  <path d="M77.0452 55.3858L95.3969 55.5063L95.2097 33.8711C95.2097 33.8711 98.3144 14.4333 119.11 19.0373C121.874 19.86 123.983 21.8482 126.484 24.1247L78.0027 73.1705C86.479 108.645 139.913 113.089 149.508 70.1142C149.399 45.4455 149.241 45.6509 149.241 45.6509L131.3 45.721L131.034 69.241C123.318 89.7619 103.54 82.776 100.063 76.8817C112.379 64.5838 139.38 37.6301 148.856 28.1993C138.286 -10.9751 76.8074 -7.63338 76.8074 36.9315L77.0452 55.3858Z" fill="white"/>
  <path d="M230.574 36.6903H212.582C209.648 22.5426 194.314 15.5473 184.37 22.7645C173.719 30.4952 173.486 51.0082 194.446 54.9233L194.59 73.1564C146.946 68.1318 155.124 22.7645 170.094 9.5262C189.489 -7.62652 227.551 -0.349781 230.574 36.6903Z" fill="white"/>
  <path d="M228.264 65.097L215.4 52.2505L179.272 88.4294L192.083 101.063L228.264 65.097Z" fill="white"/>
  <path d="M0 27.882C8.84619 27.6166 26.512 21.8843 26.4059 1.07799C35.0725 0.992585 42.4973 0.994149 45.1263 1.00561C45.1788 10.5099 41.0405 26.85 26.8608 37.1746L45.0268 37.1733L45.1597 82.8659H71.7916L71.858 101.063L0.0647583 100.93V82.9323H26.6967L26.8608 37.1746C20.2916 41.9578 11.5673 45.4499 0.106064 46.3731C0.248305 38.052 0.0946217 30.5786 0 27.882Z" fill="white"/>
  <path d="M8.5935 137.573C3.37 137.573 0.9099 134.304 1.1795 131.473H4.7854C4.8191 133.158 6.1671 134.472 8.2902 134.472C10.0089 134.472 11.1884 133.664 11.1547 132.383C11.121 131.17 10.0089 130.664 7.2455 130.024C3.9092 129.35 1.6176 128.069 1.6176 125.003C1.6176 121.902 4.1788 119.813 7.9869 119.813C12.3679 119.813 14.8617 122.543 14.8954 125.879H11.4243C11.3569 123.554 9.3012 122.88 7.9869 122.88C6.8074 122.88 5.1898 123.453 5.1898 124.834C5.1898 126.216 6.8074 126.486 8.4587 126.89C12.8397 127.8 14.828 129.283 14.828 132.383C14.828 135.551 12.2668 137.573 8.5935 137.573ZM26.1388 133.731C26.5769 133.731 26.9813 133.697 27.4194 133.664V136.966C26.7454 137.067 26.0714 137.101 25.3974 137.101C21.5556 137.101 19.1629 135.416 19.1629 131.608V123.688H16.6354V121.498C19.9043 120.083 20.1065 116.544 20.1065 116.342H23.7798C23.8809 118.633 23.2069 119.644 22.4318 120.352H27.2172V123.688H22.971V131.204C22.971 133.158 23.8135 133.731 26.1388 133.731ZM34.6847 137.337C31.5843 137.337 28.922 135.416 28.922 132.181C28.922 128.71 32.0224 126.991 35.1902 126.991C36.673 126.991 38.0884 127.362 39.0994 128.069V126.182C39.0994 123.891 37.7514 123.082 35.999 123.082C34.1118 123.082 32.9997 124.295 32.9997 125.98H29.4275C29.2253 123.183 31.0451 119.948 36.2012 119.948C40.0093 119.948 42.8401 122.003 42.8401 126.553V133.158C42.8401 133.63 43.1097 134.27 44.2555 134.237V137.101L43.3793 137.202C41.1214 137.337 39.1668 135.989 39.2679 134.405C38.4254 136.596 36.4708 137.337 34.6847 137.337ZM35.1565 134.135C36.5045 134.169 39.0657 133.529 39.0657 130.968C38.2232 130.294 36.8752 129.923 35.4598 129.923C33.9433 129.923 32.4942 130.698 32.4942 132.113C32.4942 133.664 33.9433 134.102 35.1565 134.135ZM54.2441 133.731C54.6822 133.731 55.0866 133.697 55.5247 133.664V136.966C54.8507 137.067 54.1767 137.101 53.5027 137.101C49.6609 137.101 47.2682 135.416 47.2682 131.608V123.688H44.7407V121.498C48.0096 120.083 48.2118 116.544 48.2118 116.342H51.8851C51.9862 118.633 51.3122 119.644 50.5371 120.352H55.3225V123.688H51.0763V131.204C51.0763 133.158 51.9188 133.731 54.2441 133.731ZM62.7899 137.337C59.6895 137.337 57.0272 135.416 57.0272 132.181C57.0272 128.71 60.1276 126.991 63.2954 126.991C64.7782 126.991 66.1936 127.362 67.2046 128.069V126.182C67.2046 123.891 65.8566 123.082 64.1042 123.082C62.217 123.082 61.1049 124.295 61.1049 125.98H57.5327C57.3305 123.183 59.1503 119.948 64.3064 119.948C68.1145 119.948 70.9453 122.003 70.9453 126.553V133.158C70.9453 133.63 71.2149 134.27 72.3607 134.237V137.101L71.4845 137.202C69.2266 137.337 67.272 135.989 67.3731 134.405C66.5306 136.596 64.576 137.337 62.7899 137.337ZM63.2617 134.135C64.6097 134.169 67.1709 133.529 67.1709 130.968C66.3284 130.294 64.9804 129.923 63.565 129.923C62.0485 129.923 60.5994 130.698 60.5994 132.113C60.5994 133.664 62.0485 134.102 63.2617 134.135ZM92.5399 119.948C95.9436 119.948 98.3026 122.105 98.3363 126.182V137H94.4608V126.755C94.4608 124.396 93.3487 123.52 91.7648 123.52C90.0798 123.52 88.6307 124.767 88.6307 127.362V137H84.7552V126.755C84.7552 124.396 83.8453 123.52 82.2614 123.52C80.6101 123.52 78.8914 124.767 78.8914 127.362V137H75.0496V120.352H78.487L78.7229 122.846C79.5317 121.06 81.3852 119.948 83.3061 119.948C85.4292 119.948 87.0131 120.824 87.8893 122.543C88.7992 120.655 90.956 119.948 92.5399 119.948ZM106.379 113.477V117.757H101.897V113.477H106.379ZM106.076 120.352V137H102.201V120.352H106.076ZM117.546 137.337C112.188 137.303 109.458 133.394 109.458 128.642C109.458 123.891 112.423 119.948 117.58 119.948C121.185 119.948 124.589 122.239 124.892 125.98H120.916C120.377 123.756 118.658 123.486 117.546 123.486C115.423 123.486 113.434 125.003 113.434 128.676C113.434 132.383 115.389 133.798 117.546 133.798C118.591 133.798 120.242 133.563 120.95 131.305H124.926C124.32 135.18 121.388 137.371 117.546 137.337Z" fill="#FF259E"/>
  <path d="M141.287 137.573C136.064 137.573 133.604 134.304 133.873 131.473H137.479C137.513 133.158 138.861 134.472 140.984 134.472C142.703 134.472 143.882 133.664 143.848 132.383C143.815 131.17 142.703 130.664 139.939 130.024C136.603 129.35 134.311 128.069 134.311 125.003C134.311 121.902 136.873 119.813 140.681 119.813C145.062 119.813 147.555 122.543 147.589 125.879H144.118C144.051 123.554 141.995 122.88 140.681 122.88C139.501 122.88 137.884 123.453 137.884 124.834C137.884 126.216 139.501 126.486 141.152 126.89C145.533 127.8 147.522 129.283 147.522 132.383C147.522 135.551 144.961 137.573 141.287 137.573ZM158.833 133.731C159.271 133.731 159.675 133.697 160.113 133.664V136.966C159.439 137.067 158.765 137.101 158.091 137.101C154.249 137.101 151.857 135.416 151.857 131.608V123.688H149.329V121.498C152.598 120.083 152.8 116.544 152.8 116.342H156.474C156.575 118.633 155.901 119.644 155.126 120.352H159.911V123.688H155.665V131.204C155.665 133.158 156.507 133.731 158.833 133.731ZM167.378 137.337C164.278 137.337 161.616 135.416 161.616 132.181C161.616 128.71 164.716 126.991 167.884 126.991C169.367 126.991 170.782 127.362 171.793 128.069V126.182C171.793 123.891 170.445 123.082 168.693 123.082C166.806 123.082 165.693 124.295 165.693 125.98H162.121C161.919 123.183 163.739 119.948 168.895 119.948C172.703 119.948 175.534 122.003 175.534 126.553V133.158C175.534 133.63 175.803 134.27 176.949 134.237V137.101L176.073 137.202C173.815 137.337 171.861 135.989 171.962 134.405C171.119 136.596 169.165 137.337 167.378 137.337ZM167.85 134.135C169.198 134.169 171.759 133.529 171.759 130.968C170.917 130.294 169.569 129.923 168.154 129.923C166.637 129.923 165.188 130.698 165.188 132.113C165.188 133.664 166.637 134.102 167.85 134.135ZM188.4 120.049V124.025C185.805 123.756 183.514 124.295 183.514 127.766V137H179.638V120.352H183.076L183.311 123.183C183.918 120.891 185.468 119.779 188.4 120.049ZM199.444 133.731C199.882 133.731 200.286 133.697 200.724 133.664V136.966C200.05 137.067 199.376 137.101 198.702 137.101C194.861 137.101 192.468 135.416 192.468 131.608V123.688H189.94V121.498C193.209 120.083 193.411 116.544 193.411 116.342H197.085C197.186 118.633 196.512 119.644 195.737 120.352H200.522V123.688H196.276V131.204C196.276 133.158 197.118 133.731 199.444 133.731ZM210.218 119.948C213.689 119.948 217.969 122.037 217.969 128.44L217.935 129.552H206.174C206.073 131.979 207.825 134.034 210.454 134.034C211.802 134.034 213.386 133.63 213.958 131.709H217.733C217.059 134.911 214.632 137.371 210.487 137.371C205.264 137.371 202.265 133.428 202.265 128.642C202.265 123.587 205.264 119.948 210.218 119.948ZM210.319 123.082C208.061 123.082 206.544 124.733 206.342 126.789H213.958C213.958 124.632 212.307 123.082 210.319 123.082ZM230.097 120.049V124.025C227.502 123.756 225.211 124.295 225.211 127.766V137H221.335V120.352H224.773L225.009 123.183C225.615 120.891 227.165 119.779 230.097 120.049Z" fill="white"/>
</svg>